<mxfile host="65bd71144e">
    <diagram id="VmqzoXUgxyK-na9UhLVE" name="Page-1">
        <mxGraphModel dx="1884" dy="699" grid="0" gridSize="10" guides="0" tooltips="0" connect="0" arrows="0" fold="1" page="0" pageScale="1" pageWidth="850" pageHeight="1100" math="0" shadow="0">
            <root>
                <mxCell id="0"/>
                <mxCell id="1" parent="0"/>
                <mxCell id="2" value="Producteur de vin" style="swimlane;fontStyle=0;childLayout=stackLayout;horizontal=1;startSize=30;horizontalStack=0;resizeParent=1;resizeParentMax=0;resizeLast=0;collapsible=1;marginBottom=0;whiteSpace=wrap;html=1;" vertex="1" parent="1">
                    <mxGeometry x="231" y="330" width="140" height="107" as="geometry"/>
                </mxCell>
                <mxCell id="3" value="id_producteur (pk)&lt;br&gt;nom&lt;br&gt;adresse&amp;nbsp;&lt;br&gt;région" style="text;strokeColor=none;fillColor=none;align=left;verticalAlign=middle;spacingLeft=4;spacingRight=4;overflow=hidden;points=[[0,0.5],[1,0.5]];portConstraint=eastwest;rotatable=0;whiteSpace=wrap;html=1;" vertex="1" parent="2">
                    <mxGeometry y="30" width="140" height="77" as="geometry"/>
                </mxCell>
                <mxCell id="6" value="Distributeur de vin" style="swimlane;fontStyle=0;childLayout=stackLayout;horizontal=1;startSize=30;horizontalStack=0;resizeParent=1;resizeParentMax=0;resizeLast=0;collapsible=1;marginBottom=0;whiteSpace=wrap;html=1;" vertex="1" parent="1">
                    <mxGeometry x="1055" y="86" width="140" height="107" as="geometry"/>
                </mxCell>
                <mxCell id="7" value="id_distributeur (pk)&lt;br&gt;nom&lt;br&gt;adresse&amp;nbsp;&lt;br&gt;région" style="text;strokeColor=none;fillColor=none;align=left;verticalAlign=middle;spacingLeft=4;spacingRight=4;overflow=hidden;points=[[0,0.5],[1,0.5]];portConstraint=eastwest;rotatable=0;whiteSpace=wrap;html=1;" vertex="1" parent="6">
                    <mxGeometry y="30" width="140" height="77" as="geometry"/>
                </mxCell>
                <mxCell id="8" value="Détaillant de vin" style="swimlane;fontStyle=0;childLayout=stackLayout;horizontal=1;startSize=30;horizontalStack=0;resizeParent=1;resizeParentMax=0;resizeLast=0;collapsible=1;marginBottom=0;whiteSpace=wrap;html=1;" vertex="1" parent="1">
                    <mxGeometry x="1052" y="567" width="140" height="107" as="geometry"/>
                </mxCell>
                <mxCell id="9" value="id_détaillant (pk)&lt;br&gt;nom&lt;br&gt;adresse&amp;nbsp;&lt;br&gt;région" style="text;strokeColor=none;fillColor=none;align=left;verticalAlign=middle;spacingLeft=4;spacingRight=4;overflow=hidden;points=[[0,0.5],[1,0.5]];portConstraint=eastwest;rotatable=0;whiteSpace=wrap;html=1;" vertex="1" parent="8">
                    <mxGeometry y="30" width="140" height="77" as="geometry"/>
                </mxCell>
                <mxCell id="10" value="Transactions" style="swimlane;fontStyle=0;childLayout=stackLayout;horizontal=1;startSize=30;horizontalStack=0;resizeParent=1;resizeParentMax=0;resizeLast=0;collapsible=1;marginBottom=0;whiteSpace=wrap;html=1;" vertex="1" parent="1">
                    <mxGeometry x="667" y="310" width="140" height="139" as="geometry"/>
                </mxCell>
                <mxCell id="11" value="id_transaction (pk)&lt;br&gt;producteur (fk)&lt;br&gt;distributeur (fk)&lt;br&gt;détaillant (fk)&lt;br&gt;vin (fk)&lt;br&gt;date&lt;br&gt;pric" style="text;strokeColor=none;fillColor=none;align=left;verticalAlign=middle;spacingLeft=4;spacingRight=4;overflow=hidden;points=[[0,0.5],[1,0.5]];portConstraint=eastwest;rotatable=0;whiteSpace=wrap;html=1;" vertex="1" parent="10">
                    <mxGeometry y="30" width="140" height="109" as="geometry"/>
                </mxCell>
                <mxCell id="13" value="Vin" style="swimlane;fontStyle=0;childLayout=stackLayout;horizontal=1;startSize=30;horizontalStack=0;resizeParent=1;resizeParentMax=0;resizeLast=0;collapsible=1;marginBottom=0;whiteSpace=wrap;html=1;" vertex="1" parent="1">
                    <mxGeometry x="-208" y="310" width="140" height="139" as="geometry"/>
                </mxCell>
                <mxCell id="15" value="est produit" style="rhombus;whiteSpace=wrap;html=1;" vertex="1" parent="1">
                    <mxGeometry x="44" y="344" width="80" height="80" as="geometry"/>
                </mxCell>
                <mxCell id="16" value="produit" style="rhombus;whiteSpace=wrap;html=1;" vertex="1" parent="1">
                    <mxGeometry x="479" y="337" width="80" height="80" as="geometry"/>
                </mxCell>
                <mxCell id="17" value="transmet" style="rhombus;whiteSpace=wrap;html=1;" vertex="1" parent="1">
                    <mxGeometry x="805" y="118" width="80" height="80" as="geometry"/>
                </mxCell>
                <mxCell id="18" value="transmet" style="rhombus;whiteSpace=wrap;html=1;" vertex="1" parent="1">
                    <mxGeometry x="877" y="497" width="80" height="80" as="geometry"/>
                </mxCell>
                <mxCell id="14" value="id_vin (pk)&lt;br&gt;nom&amp;nbsp;&lt;br&gt;type&lt;br&gt;millésime&lt;br&gt;producteur(sk)" style="text;strokeColor=none;fillColor=none;align=left;verticalAlign=middle;spacingLeft=4;spacingRight=4;overflow=hidden;points=[[0,0.5],[1,0.5]];portConstraint=eastwest;rotatable=0;whiteSpace=wrap;html=1;" vertex="1" parent="1">
                    <mxGeometry x="-207" y="339" width="140" height="109" as="geometry"/>
                </mxCell>
                <mxCell id="26" value="" style="endArrow=none;html=1;entryX=0.003;entryY=0.494;entryDx=0;entryDy=0;entryPerimeter=0;" edge="1" parent="1" target="15">
                    <mxGeometry width="50" height="50" relative="1" as="geometry">
                        <mxPoint x="-64" y="384" as="sourcePoint"/>
                        <mxPoint x="-16" y="338" as="targetPoint"/>
                    </mxGeometry>
                </mxCell>
                <mxCell id="27" value="" style="endArrow=none;html=1;entryX=0.003;entryY=0.494;entryDx=0;entryDy=0;entryPerimeter=0;" edge="1" parent="1">
                    <mxGeometry width="50" height="50" relative="1" as="geometry">
                        <mxPoint x="122" y="383.48000000000013" as="sourcePoint"/>
                        <mxPoint x="230.24" y="383.0000000000001" as="targetPoint"/>
                    </mxGeometry>
                </mxCell>
                <mxCell id="28" value="" style="endArrow=none;html=1;entryX=0.003;entryY=0.494;entryDx=0;entryDy=0;entryPerimeter=0;" edge="1" parent="1">
                    <mxGeometry width="50" height="50" relative="1" as="geometry">
                        <mxPoint x="371" y="379.48000000000013" as="sourcePoint"/>
                        <mxPoint x="479.24" y="379.0000000000001" as="targetPoint"/>
                    </mxGeometry>
                </mxCell>
                <mxCell id="29" value="" style="endArrow=none;html=1;entryX=0.003;entryY=0.494;entryDx=0;entryDy=0;entryPerimeter=0;" edge="1" parent="1">
                    <mxGeometry width="50" height="50" relative="1" as="geometry">
                        <mxPoint x="558" y="379.48000000000013" as="sourcePoint"/>
                        <mxPoint x="666.24" y="379.0000000000001" as="targetPoint"/>
                    </mxGeometry>
                </mxCell>
                <mxCell id="30" value="" style="endArrow=none;html=1;entryX=0.011;entryY=0.545;entryDx=0;entryDy=0;entryPerimeter=0;" edge="1" parent="1" target="17">
                    <mxGeometry width="50" height="50" relative="1" as="geometry">
                        <mxPoint x="804" y="311.48000000000013" as="sourcePoint"/>
                        <mxPoint x="912.24" y="311.0000000000001" as="targetPoint"/>
                    </mxGeometry>
                </mxCell>
                <mxCell id="31" value="" style="endArrow=none;html=1;entryX=-0.016;entryY=0.471;entryDx=0;entryDy=0;entryPerimeter=0;exitX=1.006;exitY=0.472;exitDx=0;exitDy=0;exitPerimeter=0;" edge="1" parent="1" source="17" target="7">
                    <mxGeometry width="50" height="50" relative="1" as="geometry">
                        <mxPoint x="951" y="244.4800000000001" as="sourcePoint"/>
                        <mxPoint x="1059.24" y="244.00000000000009" as="targetPoint"/>
                    </mxGeometry>
                </mxCell>
                <mxCell id="32" value="" style="endArrow=none;html=1;entryX=0.021;entryY=0.506;entryDx=0;entryDy=0;entryPerimeter=0;" edge="1" parent="1" target="18">
                    <mxGeometry width="50" height="50" relative="1" as="geometry">
                        <mxPoint x="806" y="450.48000000000013" as="sourcePoint"/>
                        <mxPoint x="914.24" y="450.0000000000001" as="targetPoint"/>
                    </mxGeometry>
                </mxCell>
                <mxCell id="33" value="" style="endArrow=none;html=1;entryX=-0.022;entryY=0.39;entryDx=0;entryDy=0;entryPerimeter=0;exitX=0.955;exitY=0.489;exitDx=0;exitDy=0;exitPerimeter=0;" edge="1" parent="1" source="18" target="9">
                    <mxGeometry width="50" height="50" relative="1" as="geometry">
                        <mxPoint x="888" y="625" as="sourcePoint"/>
                        <mxPoint x="1065.24" y="526.0000000000001" as="targetPoint"/>
                    </mxGeometry>
                </mxCell>
                <mxCell id="38" value="produit" style="rhombus;whiteSpace=wrap;html=1;" vertex="1" parent="1">
                    <mxGeometry x="925" y="243" width="80" height="80" as="geometry"/>
                </mxCell>
                <mxCell id="40" value="" style="endArrow=none;html=1;entryX=0.508;entryY=1.042;entryDx=0;entryDy=0;entryPerimeter=0;exitX=0.5;exitY=0;exitDx=0;exitDy=0;exitPerimeter=0;" edge="1" parent="1" source="38" target="7">
                    <mxGeometry width="50" height="50" relative="1" as="geometry">
                        <mxPoint x="1032" y="230" as="sourcePoint"/>
                        <mxPoint x="1199.2800000000002" y="226.50700000000006" as="targetPoint"/>
                    </mxGeometry>
                </mxCell>
                <mxCell id="41" value="" style="endArrow=none;html=1;entryX=1.018;entryY=0.312;entryDx=0;entryDy=0;entryPerimeter=0;exitX=0.023;exitY=0.484;exitDx=0;exitDy=0;exitPerimeter=0;" edge="1" parent="1" source="38" target="11">
                    <mxGeometry width="50" height="50" relative="1" as="geometry">
                        <mxPoint x="907" y="293" as="sourcePoint"/>
                        <mxPoint x="1074.2800000000002" y="289.50700000000006" as="targetPoint"/>
                    </mxGeometry>
                </mxCell>
            </root>
        </mxGraphModel>
    </diagram>
</mxfile>